<?xml version="1.0" encoding="UTF-8" standalone="no"?>
<!-- Created with Inkscape (http://www.inkscape.org/) -->

<svg
   version="1.1"
   id="svg25"
   width="64"
   height="64"
   viewBox="0 0 64 64"
   sodipodi:docname="birdicon"
   inkscape:version="1.2.1 (ef4d3fba62, 2022-07-19, custom)"
   xmlns:inkscape="http://www.inkscape.org/namespaces/inkscape"
   xmlns:sodipodi="http://sodipodi.sourceforge.net/DTD/sodipodi-0.dtd"
   xmlns="http://www.w3.org/2000/svg"
   xmlns:svg="http://www.w3.org/2000/svg">
  <defs
     id="defs29" />
  <sodipodi:namedview
     id="namedview27"
     pagecolor="#ffffff"
     bordercolor="#000000"
     borderopacity="0.25"
     inkscape:showpageshadow="2"
     inkscape:pageopacity="0.0"
     inkscape:pagecheckerboard="0"
     inkscape:deskcolor="#d1d1d1"
     showgrid="false"
     inkscape:zoom="7.514427"
     inkscape:cx="17.433132"
     inkscape:cy="28.412013"
     inkscape:window-width="1920"
     inkscape:window-height="1016"
     inkscape:window-x="0"
     inkscape:window-y="0"
     inkscape:window-maximized="1"
     inkscape:current-layer="g31" />
  <g
     inkscape:groupmode="layer"
     inkscape:label="Image"
     id="g31"
     style="display:inline">
    <path
       style="display:inline;fill:#ff7d00;fill-opacity:1;stroke-width:0.0787208"
       d="M 14.946925,16.972182 C 14.124293,16.869918 11.241255,16.510941 8.5401755,16.174457 L 3.1235861,15.425828 10.342451,10.773033 c 3.77962,-2.436088 6.78914,-4.56925 6.796483,-4.5637311 0.01005,0.00755 -0.560068,10.8485391 -0.575219,10.9474611 0.01534,-0.09269 0.01586,-0.06294 -1.616795,-0.184578 z"
       id="path610"
       sodipodi:nodetypes="cscssccc" />
    <path
       style="display:inline;fill:#ff7d00;fill-opacity:1;stroke-width:0.0787208"
       d="m 17.509906,30.539297 c 0.02305,-0.313899 0.253719,-5.102954 0.512599,-10.642344 0.25888,-5.53939 0.480304,-10.0812321 0.492054,-10.0929831 0.01175,-0.01175 0.362388,0.9249061 0.779196,2.0814591 0.416807,1.156552 1.720216,4.772911 2.896464,8.036353 1.772192,4.916861 2.12056,5.950593 2.033155,6.033102 -0.185645,0.175247 -6.673635,5.581952 -6.716244,5.581952 -0.02254,0 -0.02028,-0.68364 0.0028,-0.997539 z"
       id="path1427"
       sodipodi:nodetypes="ssssssss" />
    <path
       style="display:inline;fill:#ff7d00;fill-opacity:1;stroke-width:0.0787208"
       d="m 22.604256,15.978904 c -1.698431,-4.596562 -3.074937,-8.3705057 -3.058901,-8.3865411 0.01603,-0.016035 3.035181,2.122613 6.709212,4.7525521 3.674032,2.629938 6.936254,4.961182 7.249382,5.180541 0.31313,0.219359 0.568942,0.416547 0.568473,0.438195 -4.72e-4,0.02165 -0.469209,0.399642 -1.04165,0.839985 -0.572437,0.440344 -1.111646,0.856812 -1.198239,0.925485 -0.242216,0.192091 -3.723873,2.858729 -4.942567,3.785566 -0.596886,0.453941 -1.11054,0.824505 -1.141451,0.823475 -0.03091,-0.001 -1.445828,-3.762696 -3.144259,-8.359258 z"
       id="path1429" />
    <path
       style="display:inline;fill:#ff7d00;fill-opacity:1;stroke-width:0.0787208"
       d="m 26.833763,33.155999 c -1.753506,-0.205972 -4.144649,-0.485331 -5.313653,-0.620797 -1.169004,-0.135466 -2.228677,-0.272883 -2.354828,-0.305373 -0.216619,-0.05579 0.178585,-0.373334 7.110593,-5.713367 4.036978,-3.109864 7.358203,-5.636055 7.380498,-5.613759 0.0223,0.02229 -0.265349,1.132491 -0.639212,2.467102 -2.259349,8.065403 -2.854477,10.1326 -2.920907,10.145859 -0.04086,0.0082 -1.508986,-0.153692 -3.262491,-0.359665 z"
       id="path1431" />
    <path
       style="display:inline;fill:#ff7d00;fill-opacity:1;stroke-width:0.0787208"
       d="m 24.926353,39.117995 c -2.791626,-2.217915 -5.284382,-4.539767 -5.250814,-4.553069 0.03357,-0.0133 1.246645,-0.0059 2.191731,0.08185 0.945086,0.08775 2.873074,0.308156 4.323505,0.439061 1.45043,0.130906 3.164022,0.348517 3.791821,0.413674 0.627797,0.06516 2.956517,0.406029 4.601783,0.557925 1.645263,0.151896 2.898882,0.348777 2.546886,0.583201 -0.140605,0.09364 -1.446256,1.494179 -6.79687,6.216599 l -0.332356,0.293334 z"
       id="path1433"
       sodipodi:nodetypes="sssssssscs" />
    <path
       style="display:inline;fill:#ff7d00;fill-opacity:1;stroke-width:0.0787208"
       d="m 26.62948,55.708544 c -1.381372,-1.797751 -2.498636,-3.29443 -2.482811,-3.325954 0.0543,-0.108158 14.911311,-15.05737 14.937991,-15.030691 0.01467,0.01467 -2.064231,4.594104 -4.619772,10.176527 -4.914166,10.7347 -5.244291,11.448755 -5.293035,11.448755 -0.01693,0 -1.161002,-1.470887 -2.542373,-3.268637 z"
       id="path1435" />
    <path
       style="display:inline;fill:#ff7d00;fill-opacity:1;stroke-width:0.0787208"
       d="m 31.005964,59.893359 c 0,-0.01566 0.102258,-0.254775 0.22724,-0.531366 1.098716,-2.43152 3.366423,-7.440188 3.827465,-8.453693 0.315128,-0.692743 1.252694,-2.765067 2.08348,-4.605166 0.830787,-1.840098 1.697128,-3.753013 1.925202,-4.250922 0.228074,-0.497909 0.780991,-1.710382 1.228701,-2.694384 0.447711,-0.984002 0.822562,-1.780553 0.833001,-1.770114 0.02625,0.02625 -0.510734,19.753229 -0.538293,19.775239 -0.04421,0.03531 -9.410804,2.558877 -9.497642,2.558877 -0.04903,0 -0.08915,-0.01281 -0.08915,-0.02847 z"
       id="path1437" />
    <path
       style="display:inline;fill:#ff7d00;fill-opacity:1;stroke-width:0.0787208"
       d="M 39.57704,34.827071 C 39.5354,34.710908 38.854293,34.630589 34.991443,34.286316 33.05981,34.11416 31.604514,33.951394 31.588435,33.905709 c -0.01545,-0.0439 1.009432,-3.515982 2.277519,-7.715736 l 2.305613,-7.635916 2.35212,-1.592344 c 1.293666,-0.875789 2.369529,-1.574935 2.390806,-1.553658 0.03808,0.03808 0.314174,19.337108 0.277386,19.389262 -0.05399,0.07654 -1.587937,0.104801 -1.61484,0.02975 z"
       id="path1441" />
    <path
       style="display:inline;fill:#ff7d00;fill-opacity:1;stroke-width:0.0787208"
       d="m 42.944395,33.449274 c -0.06102,-1.058932 -0.04964,-6.48624 0.01811,-8.639117 l 0.04838,-1.537257 5.066062,2.142474 c 2.786334,1.17836 5.081733,2.158145 5.100888,2.1773 0.01915,0.01915 -0.188249,0.176037 -0.460896,0.348628 -0.272646,0.172591 -2.532621,1.658255 -5.022167,3.301476 -2.489545,1.64322 -4.565382,3.010565 -4.612972,3.038543 -0.05963,0.03506 -0.102341,-0.22355 -0.137405,-0.832047 z"
       id="path1443" />
    <path
       style="display:inline;fill:#ff7d00;fill-opacity:1;stroke-width:0.0787208"
       d="m 49.347909,23.870444 -5.785978,-2.107131 -0.02047,-3.592328 -0.02047,-3.592328 0.335358,-10e-4 c 0.615121,-0.0019 17.023715,0.646499 17.052599,0.673861 0.01564,0.01482 -0.130771,0.321154 -0.325356,0.68075 -0.194585,0.359597 -1.478729,2.743849 -2.853655,5.298339 -1.374924,2.554489 -2.521503,4.667585 -2.547952,4.695769 -0.02645,0.02818 -2.651779,-0.896966 -5.834067,-2.055889 z"
       id="path1445" />
  </g>
  <g
     inkscape:groupmode="layer"
     id="layer1"
     inkscape:label="Image 1" />
</svg>
